<?xml version="1.0" standalone="no"?><!DOCTYPE svg PUBLIC "-//W3C//DTD SVG 1.1//EN" "http://www.w3.org/Graphics/SVG/1.1/DTD/svg11.dtd"><svg class="icon" width="200px" height="197.68px" viewBox="0 0 1036 1024" version="1.1" xmlns="http://www.w3.org/2000/svg"><path fill="#255255255" d="M495.247284 647.415617c-90.277078-15.476071-126.387909-72.221662-126.387909-183.133501v-90.277078c0-7.738035-7.738035-15.476071-15.476071-15.476071s-15.476071 7.738035-15.47607 15.476071v90.277078c0 123.808564 49.007557 193.450882 152.18136 214.085642 7.738035 0 15.476071-5.15869 15.47607-12.896725 2.579345-7.738035-2.579345-15.476071-12.896725-18.055416zM539.09615 709.319899h15.476071c7.738035 0 15.476071-7.738035 15.47607-15.47607s-7.738035-15.476071-15.47607-15.476071h-15.476071c-7.738035 0-15.476071 7.738035-15.47607 15.476071s7.738035 15.476071 15.47607 15.47607z"  /><path fill="#255255255" d="M273.423606 495.234257V64.483627h533.924434v56.745592c-2.579345 2.579345-2.579345 7.738035-2.579345 10.31738 0 5.15869 0 7.738035 2.579345 10.317381v368.846347c0 2.579345-2.579345 5.15869-2.579345 10.317381v2.579345c-15.476071 131.546599-134.125945 245.037783-260.513854 245.037783h-5.158691c-5.15869-2.579345-7.738035-2.579345-12.896725-2.579345s-7.738035 0-12.896725 2.579345c-128.967254-10.31738-239.879093-139.284635-239.879094-275.989924zM5.171717 211.506297v18.055416c5.15869 116.070529 79.959698 322.418136 196.030227 322.418136 5.15869 0 10.31738 0 15.47607-2.579345 23.214106 141.86398 139.284635 263.093199 278.56927 281.148614v128.967255h-193.450882c-18.055416 0-30.952141 12.896725-30.952141 30.952141s12.896725 30.952141 30.952141 30.952141h456.544081c18.055416 0 30.952141-12.896725 30.952141-30.952141s-12.896725-30.952141-30.952141-30.952141h-201.188917v-126.38791c149.602015-5.15869 283.72796-134.125945 309.521411-283.727959 103.173804-30.952141 167.657431-224.403023 167.65743-327.576826 0-41.269521-10.31738-72.221662-30.952141-92.856424-30.952141-30.952141-79.959698-30.952141-131.546599-28.372796h-2.579345V28.372796c0-18.055416-18.055416-28.372796-36.110832-28.372796H237.312775c-18.055416 0-28.372796 10.31738-28.372796 28.372796v72.221662c-2.579345 0-5.15869-2.579345-10.31738-2.579345H162.511768c-51.586902-2.579345-98.015113-2.579345-131.5466 28.372796C12.909752 144.443325 2.592372 172.816121 0.013027 208.926952z m871.81864-49.007556c36.110831 0 72.221662-2.579345 85.118388 10.31738 10.31738 10.31738 12.896725 30.952141 12.896725 46.428211 0 87.697733-49.007557 214.085642-100.594458 255.355164V162.498741h5.15869zM69.655344 219.244332c0-15.476071 2.579345-36.110831 12.896726-46.428211 12.896725-12.896725 49.007557-12.896725 85.118388-10.31738h38.690176c2.579345 0 7.738035 0 10.31738-2.579346v330.156172c-2.579345 0-5.15869-2.579345-10.31738-2.579345-61.904282 0-134.125945-162.498741-134.125945-270.831235z"  /></svg>
