<?xml version="1.0" standalone="no"?><!DOCTYPE svg PUBLIC "-//W3C//DTD SVG 1.1//EN" "http://www.w3.org/Graphics/SVG/1.1/DTD/svg11.dtd"><svg class="icon" width="200px" height="200.00px" viewBox="0 0 1024 1024" version="1.1" xmlns="http://www.w3.org/2000/svg"><path fill="#255255255" d="M820 512c0-16.569 13.431-30 30-30 16.569 0 30 13.431 30 30v261.083c0 28.914-2.975 44.318-11.56 60.37-8.025 15.006-19.98 26.962-34.987 34.987-16.052 8.585-31.456 11.56-60.37 11.56H250.917c-28.914 0-44.318-2.975-60.37-11.56-15.006-8.025-26.962-19.98-34.987-34.987-8.585-16.052-11.56-31.456-11.56-60.37V250.917c0-28.914 2.975-44.318 11.56-60.37 8.025-15.006 19.98-26.962 34.987-34.987 16.052-8.585 31.456-11.56 60.37-11.56H512c16.569 0 30 13.431 30 30 0 16.569-13.431 30-30 30H250.917c-19.856 0-25.903 1.168-32.074 4.468-4.55 2.434-7.941 5.825-10.375 10.375-3.3 6.171-4.468 12.218-4.468 32.074v522.166c0 19.856 1.168 25.903 4.468 32.074 2.434 4.55 5.825 7.941 10.375 10.375 6.171 3.3 12.218 4.468 32.074 4.468h522.166c19.856 0 25.903-1.168 32.074-4.468 4.55-2.434 7.941-5.825 10.375-10.375 3.3-6.171 4.468-12.218 4.468-32.074V512z m-57.653-306l56.569 56.569-303.948 303.947c-3.286 3.287-4.542 4.305-6.093 5.274a15.67 15.67 0 0 1-4.909 2.034c-1.781 0.41-3.39 0.579-8.037 0.579h-35.16c-3.566 0-4.86-0.372-6.163-1.069a7.27 7.27 0 0 1-3.024-3.024c-0.697-1.304-1.069-2.597-1.069-6.163v-35.16c0-4.648 0.169-6.256 0.58-8.037a15.67 15.67 0 0 1 2.033-4.91c0.97-1.55 1.987-2.806 5.274-6.092L762.347 206z m73.512-45.496l27.561 27.561c5.044 5.043 6.347 7.397 7.205 10.227 0.858 2.83 0.858 5.724 0 8.553-0.858 2.83-2.161 5.184-7.205 10.227l-20.851 20.852L786 181.355l20.852-20.851c5.043-5.044 7.397-6.347 10.227-7.205a14.538 14.538 0 0 1 8.553 0c2.83 0.858 5.184 2.161 10.227 7.205z" /></svg>
